<?xml version="1.0" encoding="utf-8"?>
<!-- Generator: Adobe Illustrator 21.1.0, SVG Export Plug-In . SVG Version: 6.00 Build 0)  -->
<svg version="1.1" id="Layer_1" xmlns="http://www.w3.org/2000/svg" xmlns:xlink="http://www.w3.org/1999/xlink" x="0px" y="0px"
	 viewBox="0 0 1036.1 1036.1" style="enable-background:new 0 0 1036.1 1036.1;" xml:space="preserve">
<style type="text/css">
	.st0{fill:#FFFFFF;}
</style>
<g>
	<path class="st0" d="M322.6,502.7h-176v30h176c35.8,0,65-29.2,65-65h-30C357.6,487,341.9,502.7,322.6,502.7z"/>
	<path class="st0" d="M992.1,317.3c-25.9-61.3-63.1-116.4-110.4-163.7C834.4,106.3,779.4,69.2,718,43.2
		C654.5,16.4,587.1,2.7,517.6,2.7c-69.5,0-137,13.6-200.5,40.5c-61.3,25.9-116.4,63.1-163.7,110.4C106.1,200.9,69,255.9,43,317.3
		C16.2,380.8,2.6,448.2,2.6,517.7c0,69.5,13.6,137,40.5,200.5c25.9,61.3,63.1,116.4,110.4,163.7c47.3,47.3,102.4,84.4,163.7,110.4
		c63.5,26.9,130.9,40.5,200.5,40.5c69.5,0,137-13.6,200.5-40.5c61.3-25.9,116.4-63.1,163.7-110.4s84.4-102.4,110.4-163.7
		c26.9-63.5,40.5-130.9,40.5-200.5C1032.6,448.2,1019,380.8,992.1,317.3z M860.5,174.8c31.9,31.9,58.9,67.6,80.6,106.4h-28.6
		c-35.8,0-65,29.2-65,65v396c0,46.9-38.1,85-85,85s-85-38.1-85-85v-474c0-35.8-29.2-65-65-65h-50c-19.3,0-35-15.7-35-35V32.8
		c61.9,1.2,122,14,178.8,38C764.1,95.3,816,130.2,860.5,174.8z M174.6,860.7c-44.5-44.5-79.5-96.4-103.9-154.2
		c-9.9-23.4-17.9-47.4-23.9-71.8h355.8V989c-5-1.2-10-2.5-15-3.9V814.7c0-35.8-29.2-65-65-65H218.8c-46.9,0-85-38.1-85-85h-30
		c0,63.4,51.6,115,115,115h103.8c19.3,0,35,15.7,35,35v161c-9.7-3.4-19.3-7.1-28.8-11.1C271,940.2,219.2,905.2,174.6,860.7z
		 M964.5,706.5c-24.4,57.8-59.4,109.6-103.9,154.2c-44.5,44.5-96.4,79.5-154.2,103.9c-59.8,25.3-123.3,38.1-188.8,38.1
		c-28.8,0-57.1-2.5-85-7.4V634.7h170v172c0,19.3-15.7,35-35,35v30c35.8,0,65-29.2,65-65v-330h0c-0.1-63.3-51.6-114.9-115-114.9
		s-114.9,51.5-115,114.9h0v128H40.3c-5.2-28.5-7.8-57.5-7.8-87c0-65.5,12.8-129,38.1-188.8c24.4-57.8,59.4-109.6,103.9-154.2
		S271,95.3,328.8,70.8C368.6,54,410,42.7,452.6,37v208.7c0,19.3-15.7,35-35,35h-199v0.1c-63.3,0.1-114.8,51.7-114.8,115v178.9h30
		V395.8c0-46.9,38.1-85,85-85v-0.1h198.8c35.8,0,65-29.2,65-65V34c5-0.4,10-0.6,15-0.8v135.1c0,35.8,29.2,65,65,65h50
		c19.3,0,35,15.7,35,35v474c0,63.4,51.6,115,115,115s115-51.6,115-115v-396c0-19.3,15.7-35,35-35h44c2.8,5.8,5.4,11.7,7.9,17.7
		c25.3,59.8,38.1,123.3,38.1,188.8C1002.6,583.2,989.7,646.7,964.5,706.5z M517.6,391.9c46.9,0,85,38.1,85,85v127.9h-170V476.9
		C432.6,430,470.7,391.9,517.6,391.9z"/>
</g>
</svg>
